PathFileType	4	(X/Y/Z)	C:/Users/opensim2020/Desktop/walking_exp_matlab/subject01_walking14_straight_01.trc	
DataRate	CameraRate	NumFrames	NumMarkers	Units	OrigDataRate	OrigDataStartFrame	OrigNumFrames	
100.00	100.00	6	42	mm	100.00	757	106	
Frame#	Time	LFHD			RFHD			LBHD			RBHD			C7			T10			CLAV			STRN			RBAK			LSHO			LUPA			LELB			LFRM			LWRA			LWRB			LFIN			RSHO			RUPA			RELB			RFRM			RWRA			RWRB			RFIN			LASI			RASI			LPSI			RPSI			LTHI			LKNE			LTIB			LANK			LHEE			LTOE			RTHI			RKNE			RTIB			RANK			RHEE			RTOE			*39			*40			*41			
		X1	Y1	Z1	X2	Y2	Z2	X3	Y3	Z3	X4	Y4	Z4	X5	Y5	Z5	X6	Y6	Z6	X7	Y7	Z7	X8	Y8	Z8	X9	Y9	Z9	X10	Y10	Z10	X11	Y11	Z11	X12	Y12	Z12	X13	Y13	Z13	X14	Y14	Z14	X15	Y15	Z15	X16	Y16	Z16	X17	Y17	Z17	X18	Y18	Z18	X19	Y19	Z19	X20	Y20	Z20	X21	Y21	Z21	X22	Y22	Z22	X23	Y23	Z23	X24	Y24	Z24	X25	Y25	Z25	X26	Y26	Z26	X27	Y27	Z27	X28	Y28	Z28	X29	Y29	Z29	X30	Y30	Z30	X31	Y31	Z31	X32	Y32	Z32	X33	Y33	Z33	X34	Y34	Z34	X35	Y35	Z35	X36	Y36	Z36	X37	Y37	Z37	X38	Y38	Z38	X39	Y39	Z39	X40	Y40	Z40	X41	Y41	Z41	X42	Y42	Z42	

80	0.790	1462.07129	182.70654	1662.16443	1561.50427	235.92987	1668.77405	1513.59998	77.73023	1618.16577	1620.08691	132.43268	1623.66418	1544.46399	50.73347	1426.31274	1543.25427	5.23203	1135.01733	1522.68494	191.99236	1355.11670	1515.36328	231.73749	1200.09949	1624.86121	1.03180	1235.37622	1371.74719	113.13111	1386.36304	1293.81018	44.43229	1210.18750	1302.07971	0.94674	1066.48804	1275.17480	9.82356	953.42133	1279.91443	64.72185	822.95746	1270.59790	5.34498	830.78613	1254.62939	31.12932	750.92450	1680.26624	149.93747	1390.12183	1794.23389	121.47441	1194.86475	1808.90686	149.74242	1069.91943	1819.10889	236.87778	977.77399	1765.90857	354.23123	918.54089	1812.95264	329.34354	897.07611	1799.78772	402.29770	856.30499	1429.55811	176.53888	926.08862	1647.47437	173.02591	926.34247	1476.31812	-10.33148	935.55957	1619.26038	-13.01309	949.29285	1354.48962	226.51958	607.50946	1377.39490	265.80911	481.64932	1370.48621	273.85486	298.13885	1415.72485	340.54034	83.49314	1477.02527	318.27255	42.52130	1386.57312	483.23862	93.03790	1705.69080	49.17852	607.34204	1683.98376	18.22149	449.08679	1691.28540	-75.86185	299.57196	1648.33960	-150.21809	103.61619	1600.90149	-208.75729	80.18308	1641.79456	-24.02425	33.24963	1545.66821	217.66209	1702.53394	-3102.04810	1973.15808	1023.59271	-3140.60742	2012.57996	1022.13934 
81	0.800	1459.11951	195.92357	1660.34216	1558.49280	249.15663	1667.27136	1510.68445	90.90253	1616.50903	1617.12830	145.62321	1622.26208	1541.91309	64.18214	1424.51099	1540.83264	19.53194	1132.77332	1520.46338	205.63635	1353.45813	1513.52527	245.66245	1198.58740	1622.51990	14.71649	1233.49463	1369.34460	127.06527	1384.25110	1291.71631	57.94213	1207.90381	1300.73181	13.91327	1064.94946	1274.11548	20.66048	951.71918	1279.10999	73.06300	820.08893	1269.75696	13.91315	829.11334	1254.15796	38.08551	748.39600	1677.94128	163.24991	1388.81226	1792.73926	135.96683	1194.17175	1808.51465	165.30811	1069.58667	1818.30493	253.76541	978.56909	1764.47620	371.15179	920.40759	1811.63379	347.22546	899.12164	1798.00049	420.57285	859.37982	1428.47302	191.81825	923.94586	1646.26416	186.74403	924.81812	1473.78320	4.62478	933.75775	1616.68835	0.91954	948.28839	1352.72034	237.68053	603.45398	1376.55408	279.92007	479.66479	1368.94031	294.38904	297.11264	1414.06433	367.09158	83.92064	1475.18298	346.80405	42.39264	1384.96106	509.95938	98.77125	1705.47302	59.54262	607.35333	1684.00366	26.93611	448.79327	1691.37207	-70.01018	301.10852	1649.19177	-148.29640	106.43562	1601.81763	-207.21597	84.46737	1641.99890	-23.74681	33.32001	1542.54370	230.84708	1700.94702	-3102.03589	1973.12354	1023.86328	-3140.72949	2012.50256	1022.02264 
82	0.810	1455.96655	209.22534	1658.60022	1555.31470	262.38727	1665.74451	1507.56848	104.15304	1614.84106	1614.02075	158.81935	1620.85168	1539.18384	77.74448	1422.64575	1538.54883	33.63344	1130.83093	1518.16675	219.47552	1351.83337	1511.57178	259.72351	1197.10095	1620.10413	28.48572	1231.64795	1366.78711	141.04407	1382.02649	1289.49829	71.75380	1205.58850	1299.27502	26.85904	1062.98425	1272.83826	32.02542	949.92212	1278.16040	82.18848	817.33722	1268.74512	23.23292	827.41223	1253.90906	45.50267	746.06293	1675.55383	176.67345	1387.59644	1791.11328	150.25458	1193.47119	1807.93237	180.61008	1069.24475	1817.50867	270.16931	979.28815	1762.61011	387.64951	922.30133	1810.54456	364.45233	901.07568	1796.35767	438.13873	862.00970	1427.39197	207.08907	921.72308	1644.99170	200.67259	923.35461	1471.00806	19.71320	931.89771	1613.89648	15.05854	947.08527	1351.04578	249.59827	600.17108	1375.57581	294.24753	478.09628	1367.48669	313.72476	295.99979	1413.11365	391.16406	84.40243	1474.58582	371.96262	42.21795	1383.84656	533.44153	102.86279	1704.87915	70.44769	606.94580	1684.11792	36.62309	448.60443	1691.45508	-63.60478	302.72885	1650.01318	-146.00298	109.63634	1603.07910	-205.27318	89.50378	1642.13635	-23.39816	33.36888	1539.31897	244.05992	1699.37598	-3101.88892	1973.11890	1023.52448	-3140.74536	2012.46655	1021.92462 
83	0.820	1452.61011	222.67729	1656.85095	1552.10718	275.69397	1664.29114	1504.18982	117.63731	1613.07581	1610.81885	172.11650	1619.47363	1536.29114	91.35532	1420.83496	1536.27258	47.95401	1128.91663	1515.70044	233.42480	1350.21594	1509.54797	273.97256	1195.65137	1617.63953	42.31145	1229.83057	1364.05420	155.16043	1379.78625	1287.19006	85.79663	1203.18787	1297.48706	40.38785	1061.02979	1271.31616	44.05529	948.00220	1277.03394	92.22932	814.55878	1267.48584	33.37080	825.58435	1253.24207	54.25825	743.73358	1672.88025	189.99736	1386.40466	1789.36487	164.35973	1192.91968	1807.24890	195.52707	1068.98987	1816.78467	286.15109	980.00061	1761.28772	403.55502	923.75720	1809.53674	381.04935	902.71655	1794.81323	454.89096	864.18793	1426.43066	222.82460	919.83954	1643.79321	214.83072	921.95868	1468.10474	34.87528	930.15100	1610.89087	29.30965	945.64001	1350.30066	263.54608	598.48999	1374.61804	308.99658	476.88672	1366.53125	331.61465	294.83990	1412.76392	411.86438	84.53639	1474.46912	393.46921	41.78943	1383.36206	553.70966	105.02617	1704.44373	82.33946	606.36072	1683.97632	47.22038	448.13266	1691.59558	-56.31309	304.44244	1651.07935	-143.10913	113.31705	1604.09998	-203.11322	94.87939	1642.16296	-23.06124	33.34203	1535.91162	257.32703	1697.82666	-3101.98560	1973.14368	1023.59113	-3140.79077	2012.56763	1022.18738 
84	0.830	1449.19788	236.21307	1655.24756	1548.80664	289.06509	1662.94800	1500.78564	131.06712	1611.47485	1607.42554	185.37671	1618.11560	1533.35559	105.04168	1419.22131	1534.05237	62.41707	1127.01746	1513.05933	247.44719	1348.63647	1507.45068	288.31961	1194.26257	1615.07922	56.27935	1228.09253	1361.21570	169.45731	1377.56885	1284.73853	100.04377	1200.70300	1295.32288	54.36574	1058.92944	1269.53687	56.74247	945.95551	1275.71521	103.00065	811.78638	1265.97876	44.39378	823.67090	1252.34949	64.07699	741.45825	1670.05603	203.55089	1385.24609	1787.47900	178.21664	1192.41272	1806.42517	210.16658	1068.80933	1815.72437	301.32471	980.41071	1759.77869	418.96478	924.92224	1808.20984	396.82629	903.69513	1793.45056	471.00864	866.00610	1425.39893	238.04286	917.75861	1642.47656	229.11406	920.60925	1464.94067	50.19811	928.31726	1607.83167	43.72379	944.15167	1350.24243	279.92529	598.34601	1373.84045	324.31937	476.08264	1366.21289	348.00458	293.67038	1413.24597	428.83252	83.60355	1474.69031	411.03714	40.86001	1383.53235	570.88367	104.98055	1703.67126	95.14868	605.76221	1683.69543	58.64595	447.52496	1691.80200	-48.14742	306.35361	1651.88794	-140.13756	117.08858	1605.02441	-200.49290	100.63940	1642.16724	-22.70906	33.17823	1532.39856	270.57355	1696.36145	-3101.91309	1973.25391	1023.52112	-3140.77319	2012.53284	1022.02875 
85	0.840	1445.73901	249.78694	1653.85217	1545.36450	302.43900	1661.75122	1497.18042	144.52304	1610.00562	1603.85352	198.70757	1616.90027	1530.01733	118.95183	1417.50500	1531.88354	77.20070	1125.20667	1510.30811	261.72836	1347.21521	1505.24927	302.83047	1192.99292	1612.52417	70.29778	1226.56628	1358.13159	183.82803	1375.43091	1282.22888	114.61547	1198.18787	1293.16565	68.96003	1056.71667	1267.52563	70.06908	943.78009	1274.09631	114.76091	809.11926	1264.19067	56.26180	821.66235	1250.99023	74.94434	739.11127	1667.13757	217.15352	1384.16528	1785.51196	191.93849	1192.05432	1805.43909	224.35492	1068.64355	1814.73828	316.06906	980.77026	1758.59705	433.69125	925.72937	1807.13550	411.99017	904.68372	1792.09680	487.09393	867.30109	1424.16296	253.63544	916.17517	1641.25781	243.88029	919.35913	1461.85681	65.62282	926.60736	1604.53394	58.40763	942.16650	1350.37988	298.10687	599.03931	1373.47595	340.66769	475.73853	1366.29639	362.96588	292.25876	1413.85376	442.79266	81.98714	1475.47131	424.71741	39.31474	1384.39795	584.98804	102.72843	1702.79419	108.89928	604.95392	1683.35632	71.09502	446.81229	1691.79907	-39.48385	308.20288	1652.82983	-136.41811	121.33198	1606.06226	-196.99391	106.89280	1642.13135	-22.47590	33.07014	1528.79053	283.84772	1695.01855	-3101.95459	1973.08435	1023.78571	-3140.75562	2012.63037	1022.20020 
